<svg width="54" height="44" viewBox="0 0 54 44" fill="none" xmlns="http://www.w3.org/2000/svg">
<path d="M5.21266 40.0591C-1.83024 34.878 -1.69898 26.523 5.37972 21.3607L30.6633 2.92191C36.0049 -0.9738 44.6877 -0.974143 50.0299 2.92191C55.3202 6.77999 55.3266 13.0049 50.0299 16.8675L27.99 32.9251C24.3915 35.5493 18.512 35.5127 14.9744 32.8393C11.5662 30.2638 11.6755 26.1815 15.1494 23.648L32.4755 11.0294C33.2207 10.4868 34.4417 10.4775 35.2028 11.0087L37.9583 12.9319C38.7195 13.4632 38.7324 14.3337 37.9874 14.8763L20.663 27.4937C20.0686 27.9273 20.0319 28.6477 20.5849 29.0657C21.1119 29.4639 21.9404 29.4705 22.4759 29.0799L44.5157 13.0224C46.8798 11.2983 46.8798 8.49134 44.5144 6.76632C42.2014 5.07963 38.4928 5.07877 36.1789 6.76632L10.8952 25.205C6.70501 28.261 6.6404 33.2075 10.7516 36.2319C14.8511 39.2477 21.4775 39.2515 25.5845 36.2565L46.3239 21.1316C47.0684 20.5886 48.2895 20.5788 49.0511 21.1096L51.8086 23.0315C52.5703 23.5624 52.5841 24.4329 51.8395 24.9759L31.1001 40.1007C23.9191 45.3376 12.3034 45.2755 5.21266 40.0591Z" fill="black"/>
</svg>
