<svg width="1440" height="171" viewBox="0 0 1440 171" fill="none" xmlns="http://www.w3.org/2000/svg">
<rect width="1440" height="171" fill="#0C765C"/>
<rect x="100" y="58" width="1157" height="82" rx="30" fill="#D9D9D9"/>
<path d="M1204.38 109.987C1214.73 109.987 1223.12 104.983 1223.12 98.8089V80.1783C1223.12 74.0046 1214.73 69 1204.38 69C1194.02 69 1185.62 74.0046 1185.62 80.1783V98.8089C1185.62 104.983 1194.02 109.987 1204.38 109.987ZM1235.62 91.3567H1232.5C1230.77 91.3567 1229.38 92.1904 1229.38 93.2197V98.8089C1229.38 107.519 1216.78 114.507 1201.88 113.641C1188.89 112.885 1179.38 105.925 1179.38 98.1452V93.2197C1179.38 92.1904 1177.98 91.3567 1176.25 91.3567H1173.12C1171.4 91.3567 1170 92.1904 1170 93.2197V97.896C1170 108.334 1182.49 117.639 1199.69 119.052V123.029H1188.75C1187.02 123.029 1185.62 123.862 1185.62 124.892V126.755C1185.62 127.784 1187.02 128.618 1188.75 128.618H1220C1221.73 128.618 1223.12 127.784 1223.12 126.755V124.892C1223.12 123.862 1221.73 123.029 1220 123.029H1209.06V119.096C1225.8 117.727 1238.75 109.161 1238.75 98.8089V93.2197C1238.75 92.1904 1237.35 91.3567 1235.62 91.3567Z" fill="black"/>
<path d="M213.633 122.548L194.16 110.939C193.281 110.415 192.09 110.124 190.84 110.124H187.656C193.047 106.014 196.25 100.844 196.25 95.2197C196.25 81.8407 178.066 71 155.625 71C133.184 71 115 81.8407 115 95.2197C115 108.599 133.184 119.439 155.625 119.439C165.059 119.439 173.73 117.53 180.625 114.316V116.214C180.625 116.959 181.113 117.67 181.992 118.194L201.465 129.803C203.301 130.897 206.27 130.897 208.086 129.803L213.613 126.507C215.449 125.413 215.449 123.643 213.633 122.548ZM155.625 110.124C141.816 110.124 130.625 103.464 130.625 95.2197C130.625 86.9874 141.797 80.3153 155.625 80.3153C169.434 80.3153 180.625 86.9757 180.625 95.2197C180.625 103.452 169.453 110.124 155.625 110.124Z" fill="black"/>
</svg>
