<svg width="261" height="380" viewBox="0 0 261 380" fill="none" xmlns="http://www.w3.org/2000/svg">
<g clip-path="url(#clip0_2_5)" filter="url(#filter0_d_2_5)">
<path d="M108.247 87.5891H107.099V32.2619C107.099 28.0567 106.628 23.8927 105.712 20.0076C104.797 16.1225 103.455 12.5925 101.764 9.61895C100.073 6.64544 98.0649 4.28672 95.8552 2.67747C93.6454 1.06823 91.277 0.239962 88.8851 0.239975H22.2135C19.8217 0.239962 17.4533 1.06822 15.2435 2.67747C13.0337 4.28672 11.0259 6.64544 9.33462 9.61896C7.64333 12.5925 6.30173 16.1225 5.38641 20.0076C4.4711 23.8927 4 28.0567 4 32.2619V335.791C4 339.997 4.4711 344.161 5.38642 348.046C6.30173 351.931 7.64334 355.461 9.33462 358.434C11.0259 361.408 13.0337 363.767 15.2435 365.376C17.4533 366.985 19.8217 367.813 22.2135 367.813H88.8851C91.277 367.813 93.6454 366.985 95.8552 365.376C98.0649 363.767 100.073 361.408 101.764 358.434C103.455 355.461 104.797 351.931 105.712 348.046C106.628 344.161 107.099 339.997 107.099 335.791V126.972H108.247V87.5891Z" fill="#E6E6E6"/>
<path d="M89.6201 8.57098H80.9172C81.3175 10.2961 81.4702 12.1678 81.3621 14.0212C81.254 15.8745 80.8882 17.6527 80.2971 19.199C79.7061 20.7454 78.9077 22.0124 77.9725 22.8886C77.0373 23.7647 75.9939 24.223 74.9342 24.2231H36.7389C35.6792 24.223 34.6357 23.7647 33.7005 22.8886C32.7653 22.0124 31.967 20.7454 31.3759 19.1991C30.7848 17.6527 30.4191 15.8745 30.311 14.0212C30.2028 12.1678 30.3556 10.2961 30.7558 8.57098H22.6273C20.8412 8.57098 19.0725 9.18952 17.4222 10.3913C15.772 11.5931 14.2726 13.3545 13.0095 15.5751C11.7465 17.7957 10.7446 20.4319 10.0611 23.3332C9.37752 26.2345 9.0257 29.3442 9.0257 32.4845V335.569C9.0257 338.709 9.37752 341.819 10.0611 344.72C10.7446 347.621 11.7465 350.258 13.0095 352.478C14.2726 354.699 15.772 356.46 17.4222 357.662C19.0725 358.864 20.8412 359.482 22.6273 359.482H89.6201C91.4063 359.482 93.175 358.864 94.8252 357.662C96.4754 356.46 97.9749 354.699 99.2379 352.478C100.501 350.258 101.503 347.621 102.186 344.72C102.87 341.819 103.222 338.709 103.222 335.569V32.4845C103.222 29.3442 102.87 26.2345 102.186 23.3332C101.503 20.4319 100.501 17.7957 99.2379 15.5751C97.9749 13.3545 96.4754 11.5931 94.8252 10.3913C93.175 9.18952 91.4063 8.57098 89.6201 8.57098Z" fill="white"/>
<path d="M36.3864 70.1847H32.3865C32.2458 70.1847 32.1109 70.2829 32.0115 70.4578C31.912 70.6326 31.8562 70.8698 31.8562 71.1171V74.2038C31.8562 74.4511 31.912 74.6882 32.0115 74.8631C32.1109 75.0379 32.2458 75.1362 32.3865 75.1362H33.0493V79.7612H35.7235V75.1362H36.3864C36.527 75.1362 36.6619 75.0379 36.7614 74.8631C36.8608 74.6882 36.9167 74.4511 36.9167 74.2038V71.1171C36.9167 70.8698 36.8608 70.6326 36.7614 70.4578C36.6619 70.2829 36.527 70.1847 36.3864 70.1847Z" fill="#E6E6E6"/>
<path d="M40.3928 98.4346C37.9431 92.1325 36.6908 84.6289 36.8152 76.9988C36.8174 76.8227 36.7849 76.6508 36.7232 76.512C36.6615 76.3733 36.5744 76.2765 36.4767 76.2379V74.9041H32.2522V76.2193H32.194C32.079 76.2196 31.9688 76.3001 31.8876 76.4432C31.8065 76.5863 31.7609 76.7803 31.7611 76.9824C31.7611 77.0009 31.7615 77.0194 31.7623 77.0379C32.0951 85.1944 30.9713 92.509 28.3908 98.9816C28.2423 99.3536 28.1665 99.8002 28.1746 100.254L28.6366 125.376C28.6477 125.936 28.7814 126.467 29.0099 126.858C29.2384 127.249 29.544 127.47 29.8629 127.475H39.418C39.7405 127.47 40.0493 127.244 40.2785 126.845C40.5077 126.446 40.6392 125.906 40.6451 125.339L40.8231 100.948C40.8283 100.053 40.6782 99.176 40.3928 98.4346Z" fill="#E6E6E6"/>
<path d="M38.8802 106.779H30.5632C30.4401 106.779 30.3184 106.826 30.2066 106.916C30.0947 107.007 29.9953 107.139 29.9151 107.303C29.835 107.467 29.776 107.66 29.7421 107.868C29.7083 108.076 29.7005 108.295 29.7193 108.509L30.9761 122.871H38.1928L39.7194 108.557C39.7425 108.34 39.7382 108.117 39.7067 107.904C39.6752 107.69 39.6174 107.491 39.5372 107.322C39.4571 107.152 39.3567 107.015 39.2431 106.922C39.1296 106.828 39.0056 106.779 38.8802 106.779Z" fill="white"/>
<path d="M80.9133 145.439H76.9134C76.7728 145.439 76.6379 145.537 76.5384 145.712C76.439 145.887 76.3831 146.124 76.3831 146.371V149.458C76.3831 149.705 76.439 149.943 76.5384 150.117C76.6379 150.292 76.7728 150.39 76.9134 150.39H77.5763V155.015H80.2505V150.39H80.9133C81.054 150.39 81.1889 150.292 81.2883 150.117C81.3878 149.943 81.4436 149.705 81.4436 149.458V146.371C81.4436 146.124 81.3878 145.887 81.2883 145.712C81.1889 145.537 81.054 145.439 80.9133 145.439Z" fill="#E6E6E6"/>
<path d="M84.9197 173.689C82.47 167.387 81.2177 159.883 81.3421 152.253C81.3444 152.077 81.3119 151.905 81.2502 151.766C81.1884 151.628 81.1013 151.531 81.0036 151.492V150.158H76.7791V151.474H76.7209C76.664 151.474 76.6077 151.494 76.5551 151.532C76.5025 151.57 76.4548 151.627 76.4146 151.698C76.3744 151.768 76.3425 151.852 76.3208 151.945C76.2991 152.037 76.288 152.137 76.288 152.237C76.288 152.255 76.2884 152.274 76.2892 152.292C76.622 160.449 75.4982 167.763 72.9178 174.236C72.7693 174.608 72.6934 175.055 72.7016 175.509L73.1635 200.63C73.1746 201.19 73.3084 201.722 73.5369 202.113C73.7654 202.504 74.071 202.725 74.3898 202.729H83.9449C84.2675 202.724 84.5762 202.499 84.8054 202.1C85.0346 201.701 85.1662 201.16 85.172 200.593L85.35 176.202C85.3553 175.307 85.2052 174.43 84.9197 173.689Z" fill="#E6E6E6"/>
<path d="M83.4071 182.033H75.0902C74.967 182.033 74.8454 182.08 74.7335 182.171C74.6217 182.261 74.5222 182.393 74.4421 182.557C74.3619 182.721 74.3029 182.914 74.2691 183.122C74.2353 183.331 74.2275 183.549 74.2462 183.763L75.503 198.126H82.7198L84.2464 183.811C84.2695 183.595 84.2652 183.371 84.2337 183.158C84.2022 182.944 84.1443 182.746 84.0642 182.576C83.9841 182.406 83.8836 182.27 83.7701 182.176C83.6565 182.082 83.5326 182.033 83.4071 182.033Z" fill="white"/>
<path d="M30.763 251.826H28.8657C28.7989 251.826 28.735 251.873 28.6878 251.956C28.6406 252.039 28.6141 252.151 28.6141 252.269V253.733C28.6141 253.85 28.6406 253.963 28.6878 254.046C28.735 254.129 28.7989 254.175 28.8657 254.175H29.1801V256.369H30.4486V254.175H30.763C30.8297 254.175 30.8937 254.129 30.9409 254.046C30.9881 253.963 31.0146 253.85 31.0146 253.733V252.269C31.0146 252.151 30.9881 252.039 30.9409 251.956C30.8937 251.873 30.8297 251.826 30.763 251.826Z" fill="#E6E6E6"/>
<path d="M32.6634 265.227C31.5014 262.237 30.9074 258.678 30.9664 255.059C30.9675 254.975 30.9521 254.894 30.9228 254.828C30.8935 254.762 30.8522 254.716 30.8058 254.698V254.065H28.802V254.689H28.7744C28.7474 254.689 28.7206 254.698 28.6957 254.717C28.6708 254.735 28.6481 254.762 28.6291 254.795C28.61 254.829 28.5949 254.869 28.5846 254.913C28.5743 254.956 28.569 255.004 28.569 255.051C28.569 255.06 28.5692 255.069 28.5696 255.077C28.7545 258.77 28.1878 262.459 26.9704 265.486C26.8999 265.663 26.8639 265.874 26.8678 266.09L27.0869 278.006C27.0922 278.272 27.1556 278.524 27.264 278.709C27.3724 278.895 27.5174 279 27.6686 279.002H32.201C32.354 279 32.5005 278.892 32.6092 278.703C32.7179 278.514 32.7803 278.258 32.7831 277.989L32.8675 266.419C32.87 265.994 32.7988 265.578 32.6634 265.227Z" fill="#E6E6E6"/>
<path d="M32.0111 269.607H27.6864V273.409H32.0111V269.607Z" fill="white"/>
<path d="M39.5952 251.826H37.6979C37.6312 251.826 37.5672 251.873 37.52 251.956C37.4728 252.039 37.4463 252.151 37.4463 252.269V253.733C37.4463 253.85 37.4728 253.963 37.52 254.046C37.5672 254.129 37.6312 254.175 37.6979 254.175H38.0123V256.369H39.2808V254.175H39.5952C39.6619 254.175 39.7259 254.129 39.7731 254.046C39.8203 253.963 39.8468 253.85 39.8468 253.733V252.269C39.8468 252.151 39.8203 252.039 39.7731 251.956C39.7259 251.873 39.6619 251.826 39.5952 251.826Z" fill="#E6E6E6"/>
<path d="M41.4956 265.227C40.3336 262.237 39.7396 258.678 39.7986 255.059C39.7997 254.975 39.7843 254.894 39.755 254.828C39.7257 254.762 39.6844 254.716 39.638 254.698V254.065H37.6342V254.689H37.6066C37.5796 254.689 37.5528 254.698 37.5279 254.717C37.503 254.735 37.4803 254.762 37.4613 254.795C37.4422 254.829 37.4271 254.869 37.4168 254.913C37.4065 254.956 37.4012 255.004 37.4012 255.051C37.4012 255.06 37.4014 255.069 37.4018 255.077C37.5868 258.77 37.02 262.459 35.8026 265.486C35.7321 265.663 35.6961 265.874 35.7 266.09L35.9191 278.006C35.9244 278.272 35.9878 278.524 36.0962 278.709C36.2046 278.895 36.3496 279 36.5008 279.002H41.0332C41.1862 279 41.3327 278.892 41.4414 278.703C41.5501 278.514 41.6125 278.258 41.6153 277.989L41.6997 266.419C41.7022 265.994 41.631 265.578 41.4956 265.227Z" fill="#E6E6E6"/>
<path d="M40.8433 269.607H36.5187V273.409H40.8433V269.607Z" fill="white"/>
<path d="M48.4274 251.826H46.5301C46.4634 251.826 46.3994 251.873 46.3522 251.956C46.305 252.039 46.2785 252.151 46.2785 252.269V253.733C46.2785 253.85 46.305 253.963 46.3522 254.046C46.3994 254.129 46.4634 254.175 46.5301 254.175H46.8445V256.369H48.113V254.175H48.4274C48.4942 254.175 48.5581 254.129 48.6053 254.046C48.6525 253.963 48.679 253.85 48.679 253.733V252.269C48.679 252.151 48.6525 252.039 48.6053 251.956C48.5581 251.873 48.4942 251.826 48.4274 251.826Z" fill="#E6E6E6"/>
<path d="M50.3278 265.227C49.1658 262.237 48.5718 258.678 48.6308 255.059C48.6319 254.975 48.6165 254.894 48.5872 254.828C48.5579 254.762 48.5166 254.716 48.4702 254.698V254.065H46.4664V254.689H46.4388C46.4118 254.689 46.3851 254.698 46.3601 254.717C46.3352 254.735 46.3125 254.762 46.2935 254.795C46.2744 254.829 46.2593 254.869 46.249 254.913C46.2387 254.956 46.2334 255.004 46.2334 255.051C46.2334 255.06 46.2336 255.069 46.234 255.077C46.419 258.77 45.8522 262.459 44.6348 265.486C44.5643 265.663 44.5284 265.874 44.5322 266.09L44.7513 278.006C44.7566 278.272 44.82 278.524 44.9284 278.709C45.0368 278.895 45.1818 279 45.333 279.002H49.8654C50.0184 279 50.1649 278.892 50.2736 278.703C50.3823 278.514 50.4447 278.258 50.4475 277.989L50.532 266.419C50.5345 265.994 50.4633 265.578 50.3278 265.227Z" fill="#E6E6E6"/>
<path d="M49.6755 269.607H45.3509V273.409H49.6755V269.607Z" fill="white"/>
<path d="M73.9645 222.714H69.9646C69.895 222.714 69.826 222.738 69.7617 222.785C69.6973 222.831 69.6389 222.9 69.5896 222.987C69.5404 223.073 69.5013 223.176 69.4747 223.289C69.448 223.402 69.4343 223.523 69.4343 223.646V226.733C69.4343 226.98 69.4902 227.217 69.5896 227.392C69.6891 227.567 69.824 227.665 69.9646 227.665H70.6275V232.29H73.3017V227.665H73.9645C74.1052 227.665 74.2401 227.567 74.3395 227.392C74.439 227.217 74.4949 226.98 74.4949 226.733V223.646C74.4949 223.523 74.4811 223.402 74.4545 223.289C74.4278 223.176 74.3888 223.073 74.3395 222.987C74.2903 222.9 74.2318 222.831 74.1675 222.785C74.1031 222.738 74.0342 222.714 73.9645 222.714Z" fill="#E6E6E6"/>
<path d="M77.9709 250.963C75.5212 244.661 74.2689 237.158 74.3933 229.528C74.3956 229.352 74.3631 229.18 74.3014 229.041C74.2396 228.902 74.1525 228.805 74.0548 228.767V227.433H69.8304V228.748H69.7721C69.7152 228.748 69.6589 228.768 69.6063 228.807C69.5537 228.845 69.506 228.901 69.4658 228.972C69.4256 229.043 69.3937 229.127 69.372 229.22C69.3503 229.312 69.3392 229.411 69.3392 229.511C69.3392 229.53 69.3396 229.548 69.3404 229.567C69.6732 237.723 68.5494 245.038 65.969 251.51C65.8205 251.882 65.7446 252.329 65.7528 252.783L66.2147 277.905C66.2258 278.465 66.3596 278.996 66.5881 279.387C66.8166 279.778 67.1222 279.999 67.441 280.004H76.9961C77.3187 279.999 77.6274 279.773 77.8566 279.374C78.0858 278.975 78.2174 278.435 78.2232 277.868L78.4012 253.477C78.4065 252.582 78.2564 251.705 77.9709 250.963Z" fill="#E6E6E6"/>
<path d="M76.4583 259.308H68.1413C68.0182 259.308 67.8966 259.355 67.7847 259.445C67.6729 259.536 67.5734 259.667 67.4933 259.832C67.4131 259.996 67.3541 260.189 67.3203 260.397C67.2865 260.605 67.2787 260.824 67.2974 261.038L68.5542 275.4H75.771L77.2976 261.086C77.3207 260.869 77.3164 260.646 77.2849 260.432C77.2534 260.219 77.1955 260.02 77.1154 259.851C77.0352 259.681 76.9348 259.544 76.8213 259.45C76.7077 259.357 76.5838 259.308 76.4583 259.308Z" fill="white"/>
<path d="M76.1482 130.709H52.3048C53.9718 114.863 53.5882 95.7292 52.3048 75.1519H76.1482C74.8989 95.7293 74.5256 114.863 76.1482 130.709Z" fill="#E6E6E6"/>
<path d="M64.3701 111.516C67.5432 111.516 70.1155 106.994 70.1155 101.415C70.1155 95.8364 67.5432 91.3139 64.3701 91.3139C61.197 91.3139 58.6247 95.8364 58.6247 101.415C58.6247 106.994 61.197 111.516 64.3701 111.516Z" fill="white"/>
<path d="M54.3157 204.448H30.4722C32.1392 188.602 31.7557 169.468 30.4722 148.891H54.3157C53.0663 169.468 52.693 188.602 54.3157 204.448Z" fill="#E6E6E6"/>
<path d="M42.5376 185.256C45.7107 185.256 48.283 180.733 48.283 175.154C48.283 169.576 45.7107 165.053 42.5376 165.053C39.3645 165.053 36.7922 169.576 36.7922 175.154C36.7922 180.733 39.3645 185.256 42.5376 185.256Z" fill="white"/>
<path d="M89.6499 134.244H65.8065C67.4735 118.399 67.09 99.2647 65.8065 78.6873H89.6499C88.4006 99.2647 88.0273 118.399 89.6499 134.244Z" fill="#E6E6E6"/>
<path d="M77.8719 115.052C81.045 115.052 83.6173 110.529 83.6173 104.951C83.6173 99.3718 81.045 94.8493 77.8719 94.8493C74.6987 94.8493 72.1264 99.3718 72.1264 104.951C72.1264 110.529 74.6987 115.052 77.8719 115.052Z" fill="white"/>
<path d="M89.6499 131.719H65.8065C67.4735 115.873 67.09 96.7394 65.8065 76.162H89.6499C88.4006 96.7394 88.0273 115.873 89.6499 131.719Z" fill="#E6E6E6"/>
<path d="M77.8719 112.527C81.045 112.527 83.6173 108.004 83.6173 102.425C83.6173 96.8465 81.045 92.324 77.8719 92.324C74.6987 92.324 72.1264 96.8465 72.1264 102.425C72.1264 108.004 74.6987 112.527 77.8719 112.527Z" fill="white"/>
<path d="M89.6499 134.244H65.8065C67.4735 118.399 67.09 99.2647 65.8065 78.6873H89.6499C88.4006 99.2647 88.0273 118.399 89.6499 134.244Z" fill="#E6E6E6"/>
<path d="M77.8719 115.052C81.045 115.052 83.6173 110.529 83.6173 104.951C83.6173 99.3718 81.045 94.8493 77.8719 94.8493C74.6987 94.8493 72.1264 99.3718 72.1264 104.951C72.1264 110.529 74.6987 115.052 77.8719 115.052Z" fill="white"/>
<path d="M95.1081 127.678H16.9705V142.83H95.1081V127.678Z" fill="#E6E6E6"/>
<path d="M95.1081 202.933H16.9705V218.085H95.1081V202.933Z" fill="#E6E6E6"/>
<path d="M95.1081 278.187H16.9705V293.339H95.1081V278.187Z" fill="#E6E6E6"/>
<path d="M231.032 339.657L211.565 315.451C218.131 304.206 224.102 288.195 229.813 270.092L249.279 294.299C241.501 309.831 234.911 325.073 231.032 339.657Z" fill="#00BFA6"/>
<path d="M231.037 313.885C234.21 313.885 236.783 309.363 236.783 303.784C236.783 298.205 234.21 293.683 231.037 293.683C227.864 293.683 225.292 298.205 225.292 303.784C225.292 309.363 227.864 313.885 231.037 313.885Z" fill="white"/>
<path d="M137.128 229.196H134.991C134.916 229.196 134.844 229.248 134.791 229.342C134.737 229.435 134.708 229.562 134.708 229.694V231.343C134.708 231.408 134.715 231.473 134.729 231.534C134.743 231.594 134.764 231.649 134.791 231.695C134.817 231.741 134.848 231.778 134.882 231.803C134.917 231.828 134.954 231.841 134.991 231.841H135.345V234.312H136.774V231.841H137.128C137.203 231.841 137.275 231.789 137.328 231.695C137.381 231.602 137.411 231.475 137.411 231.343V229.694C137.411 229.562 137.381 229.435 137.328 229.342C137.275 229.248 137.203 229.196 137.128 229.196Z" fill="#E6E6E6"/>
<path d="M139.268 244.287C137.959 240.921 137.29 236.912 137.357 232.836C137.358 232.742 137.341 232.65 137.308 232.576C137.275 232.502 137.228 232.45 137.176 232.43V231.717H134.919V232.42H134.888C134.858 232.42 134.828 232.43 134.799 232.451C134.771 232.471 134.746 232.501 134.724 232.539C134.703 232.577 134.686 232.622 134.674 232.672C134.663 232.721 134.657 232.774 134.657 232.827C134.657 232.837 134.657 232.847 134.657 232.857C134.866 237.016 134.227 241.17 132.856 244.58C132.777 244.778 132.737 245.017 132.741 245.26L132.988 258.68C132.994 258.979 133.065 259.263 133.187 259.472C133.309 259.681 133.472 259.799 133.643 259.801H138.747C138.92 259.799 139.084 259.678 139.207 259.465C139.329 259.252 139.4 258.963 139.403 258.66L139.498 245.63C139.501 245.152 139.42 244.683 139.268 244.287Z" fill="#00BFA6"/>
<path opacity="0.2" d="M136.682 229.733C136.682 230.018 136.618 230.292 136.503 230.493C136.389 230.695 136.233 230.808 136.071 230.808C135.909 230.808 135.753 230.695 135.639 230.493C135.524 230.292 135.46 230.018 135.46 229.733" fill="black"/>
<path d="M138.274 246.873H133.965V251.924H138.274V246.873Z" fill="white"/>
<path d="M204.748 281.623H200.748C200.608 281.623 200.473 281.721 200.373 281.896C200.274 282.071 200.218 282.308 200.218 282.556V285.642C200.218 285.89 200.274 286.127 200.373 286.302C200.473 286.476 200.608 286.575 200.748 286.575H201.411V291.2H204.085V286.575H204.748C204.889 286.575 205.024 286.476 205.123 286.302C205.223 286.127 205.278 285.89 205.278 285.642V282.556C205.278 282.308 205.223 282.071 205.123 281.896C205.024 281.721 204.889 281.623 204.748 281.623Z" fill="#E6E6E6"/>
<path d="M208.755 309.873C206.305 303.571 205.053 296.067 205.177 288.437C205.179 288.261 205.147 288.089 205.085 287.951C205.023 287.812 204.936 287.715 204.838 287.676V286.343H200.614V287.658H200.556C200.499 287.658 200.443 287.678 200.39 287.716C200.337 287.755 200.29 287.811 200.249 287.882C200.209 287.953 200.177 288.037 200.156 288.129C200.134 288.222 200.123 288.321 200.123 288.421C200.123 288.439 200.123 288.458 200.124 288.476C200.457 296.633 199.333 303.947 196.753 310.42C196.604 310.792 196.528 311.239 196.536 311.693L196.998 336.814C197.009 337.375 197.143 337.906 197.372 338.297C197.6 338.688 197.906 338.909 198.225 338.913H207.78C208.102 338.909 208.411 338.683 208.64 338.284C208.869 337.885 209.001 337.344 209.007 336.777L209.185 312.386C209.19 311.491 209.04 310.614 208.755 309.873Z" fill="#00BFA6"/>
<path opacity="0.2" d="M203.914 282.629C203.914 283.162 203.794 283.674 203.579 284.051C203.365 284.429 203.074 284.641 202.77 284.641C202.467 284.641 202.176 284.429 201.961 284.051C201.747 283.674 201.626 283.162 201.626 282.629" fill="black"/>
<path d="M207.242 318.218H198.925C198.802 318.218 198.68 318.264 198.568 318.355C198.457 318.445 198.357 318.577 198.277 318.741C198.197 318.906 198.138 319.098 198.104 319.307C198.07 319.515 198.062 319.733 198.081 319.947L199.338 334.31H206.555L208.081 319.996C208.104 319.779 208.1 319.556 208.069 319.342C208.037 319.129 207.979 318.93 207.899 318.76C207.819 318.59 207.719 318.454 207.605 318.36C207.491 318.266 207.367 318.218 207.242 318.218Z" fill="white"/>
<path d="M193.336 339.618H169.492C171.159 323.772 170.776 304.638 169.492 284.061H193.336C192.086 304.638 191.713 323.772 193.336 339.618Z" fill="#00BFA6"/>
<path d="M181.558 320.425C184.731 320.425 187.303 315.903 187.303 310.324C187.303 304.745 184.731 300.223 181.558 300.223C178.385 300.223 175.812 304.745 175.812 310.324C175.812 315.903 178.385 320.425 181.558 320.425Z" fill="white"/>
<path d="M95.8102 164.773L101.163 163.917L104.569 149.374L98.4867 143.385L95.8102 164.773Z" fill="#FFB8B8"/>
<path d="M144.934 204.699C145.112 203.919 145.182 203.075 145.138 202.238C145.094 201.401 144.937 200.594 144.681 199.884C144.425 199.174 144.077 198.581 143.665 198.154C143.253 197.727 142.789 197.478 142.312 197.428L134.001 196.556L132.777 203.71L141.333 207.841C142.048 208.187 142.81 208.057 143.474 207.478C144.138 206.898 144.658 205.909 144.934 204.699Z" fill="#FFB8B8"/>
<path d="M136.01 207.962L135.918 194.537L117.458 189.359L103.237 160.683C102.497 159.191 101.474 158.221 100.359 157.953C99.2435 157.684 98.1105 158.136 97.1699 159.224C96.6004 159.883 96.1201 160.753 95.7631 161.774C95.406 162.795 95.1808 163.942 95.1035 165.132C95.0261 166.323 95.0985 167.529 95.3154 168.666C95.5323 169.802 95.8886 170.84 96.3589 171.708L108.091 197.093L136.01 207.962Z" fill="#575A89"/>
<path d="M91.674 358.976H96.5401L108.61 263.035L121.114 292.673L128.413 356.838H133.036L132.062 287.968L115.761 214.393H99.7031C95.3148 228.356 91.8724 242.749 95.8102 257.597L91.674 358.976Z" fill="#2F2E41"/>
<path d="M125.43 364.804C125.376 365.107 125.36 365.426 125.381 365.741C125.403 366.056 125.463 366.359 125.557 366.63C125.65 366.901 125.776 367.133 125.925 367.312C126.074 367.492 126.243 367.613 126.42 367.668L138.327 371.383C138.798 371.535 139.284 371.378 139.693 370.943C140.102 370.508 140.407 369.825 140.55 369.023C140.689 368.256 140.669 367.427 140.495 366.683C140.321 365.938 140.003 365.326 139.598 364.952C136.98 362.589 134.726 359.145 133.031 354.915C131.722 357.057 130.26 356.856 128.706 355.277L127.059 355.639L125.43 364.804Z" fill="#2F2E41"/>
<path d="M89.421 364.804C89.3672 365.107 89.3507 365.426 89.3726 365.741C89.3945 366.056 89.4542 366.359 89.5479 366.63C89.6416 366.901 89.7671 367.133 89.9159 367.312C90.0648 367.492 90.2336 367.613 90.4112 367.668L102.319 371.383C102.789 371.535 103.275 371.378 103.684 370.943C104.094 370.508 104.398 369.825 104.541 369.023C104.68 368.256 104.66 367.427 104.486 366.683C104.312 365.938 103.994 365.326 103.589 364.952C100.971 362.589 98.7174 359.145 97.0221 354.915C95.7134 357.057 94.2507 356.856 92.6975 355.277L91.05 355.639L89.421 364.804Z" fill="#2F2E41"/>
<path d="M104.691 154.72C108.453 154.72 111.503 149.358 111.503 142.743C111.503 136.128 108.453 130.766 104.691 130.766C100.928 130.766 97.8783 136.128 97.8783 142.743C97.8783 149.358 100.928 154.72 104.691 154.72Z" fill="#FFB8B8"/>
<path d="M98.6082 217.601L116.369 216.746L111.153 187.883C114.395 178.747 111.132 169.62 106.516 160.495L102.866 156.217L97.0267 155.362C94.4985 160.118 93.1152 166.41 93.1664 172.919C93.2821 186.858 94.6858 202.031 98.6082 217.601Z" fill="#575A89"/>
<path d="M139.415 237.029C139.753 236.435 140.007 235.707 140.154 234.907C140.301 234.107 140.337 233.257 140.261 232.427C140.184 231.597 139.997 230.811 139.714 230.134C139.43 229.456 139.06 228.907 138.632 228.53L131.186 221.981L128.46 227.712L135.402 237.427C135.982 238.239 136.712 238.647 137.452 238.574C138.192 238.5 138.891 237.95 139.415 237.029Z" fill="#FFB8B8"/>
<path d="M130.481 233.856L133.401 221.451L117.588 203.922L110.929 167.722C110.583 165.839 109.86 164.24 108.894 163.222C107.929 162.204 106.786 161.836 105.678 162.185C105.007 162.397 104.37 162.865 103.814 163.557C103.257 164.249 102.793 165.147 102.456 166.188C102.118 167.229 101.915 168.388 101.86 169.583C101.805 170.778 101.901 171.979 102.139 173.102L107.245 204.555L130.481 233.856Z" fill="#575A89"/>
<path d="M93.4988 138.038C93.4988 142.698 95.2203 149.915 97.3917 153.009C98.8526 155.091 100.783 155.003 101.528 152.154C102.291 149.231 104.924 142.36 109.557 138.038C115.733 132.276 107.367 122.418 101.528 123.921C97.1403 125.051 93.4988 130.241 93.4988 138.038Z" fill="#2F2E41"/>
<path d="M97.635 131.621C100.322 131.621 102.501 127.791 102.501 123.066C102.501 118.341 100.322 114.511 97.635 114.511C94.9475 114.511 92.7689 118.341 92.7689 123.066C92.7689 127.791 94.9475 131.621 97.635 131.621Z" fill="#2F2E41"/>
<path d="M103.231 120.072C103.23 117.915 102.766 115.838 101.932 114.257C101.097 112.677 99.9532 111.709 98.7299 111.549C98.8508 111.533 98.9716 111.516 99.0948 111.516C100.385 111.516 101.623 112.418 102.536 114.022C103.448 115.627 103.961 117.803 103.961 120.072C103.961 122.341 103.448 124.517 102.536 126.121C101.623 127.726 100.385 128.627 99.0948 128.627C98.9716 128.627 98.8508 128.61 98.7299 128.594C99.9532 128.434 101.097 127.466 101.932 125.886C102.766 124.305 103.23 122.228 103.231 120.072Z" fill="#2F2E41"/>
<path d="M104.812 147.021C105.417 147.021 105.907 145.872 105.907 144.454C105.907 143.037 105.417 141.887 104.812 141.887C104.208 141.887 103.718 143.037 103.718 144.454C103.718 145.872 104.208 147.021 104.812 147.021Z" fill="#FFB8B8"/>
<path d="M242.684 343.287H166.934L150.893 209.969H137.204V203.987H153.651L169.692 337.305H242.684V343.287Z" fill="#3F3D56"/>
<path d="M178.035 367.643C182.061 367.643 185.326 361.904 185.326 354.824C185.326 347.744 182.061 342.005 178.035 342.005C174.008 342.005 170.743 347.744 170.743 354.824C170.743 361.904 174.008 367.643 178.035 367.643Z" fill="#3F3D56"/>
<path d="M232.476 367.643C236.503 367.643 239.767 361.904 239.767 354.824C239.767 347.744 236.503 342.005 232.476 342.005C228.449 342.005 225.185 347.744 225.185 354.824C225.185 361.904 228.449 367.643 232.476 367.643Z" fill="#3F3D56"/>
<path d="M241.302 340.47H167.602L154.599 227.488H253.506C254.01 227.488 254.509 227.681 254.967 228.052C255.426 228.423 255.833 228.965 256.161 229.639C256.489 230.313 256.73 231.105 256.868 231.958C257.005 232.812 257.036 233.708 256.958 234.585L244.754 335.281C244.628 336.729 244.21 338.05 243.577 339.003C242.943 339.955 242.136 340.476 241.302 340.47ZM168.403 338.761H241.302C241.904 338.765 242.487 338.389 242.944 337.702C243.401 337.014 243.702 336.061 243.793 335.015L255.997 234.319C256.053 233.687 256.031 233.04 255.932 232.424C255.833 231.807 255.659 231.236 255.422 230.749C255.186 230.263 254.892 229.872 254.561 229.604C254.23 229.336 253.87 229.197 253.506 229.197H155.779L168.403 338.761Z" fill="#3F3D56"/>
<path d="M181.93 340.108L173.414 228.482L174.373 228.204L182.889 339.83L181.93 340.108Z" fill="#3F3D56"/>
<path d="M229.282 339.251L228.322 338.978L236.589 228.206L237.549 228.48L229.282 339.251Z" fill="#3F3D56"/>
<path d="M206.721 228.343H205.749V339.969H206.721V228.343Z" fill="#3F3D56"/>
<path d="M159.565 258.254L159.562 259.963L253.667 260.364L253.669 258.655L159.565 258.254Z" fill="#3F3D56"/>
<path d="M247.028 311.053L164.356 312.047L164.362 313.756L247.035 312.762L247.028 311.053Z" fill="#3F3D56"/>
<path d="M138.662 211.251C141.615 211.251 144.009 208.955 144.009 206.123C144.009 203.291 141.615 200.996 138.662 200.996C135.709 200.996 133.315 203.291 133.315 206.123C133.315 208.955 135.709 211.251 138.662 211.251Z" fill="#3F3D56"/>
</g>
<defs>
<filter id="filter0_d_2_5" x="0" y="0.23999" width="261" height="379.2" filterUnits="userSpaceOnUse" color-interpolation-filters="sRGB">
<feFlood flood-opacity="0" result="BackgroundImageFix"/>
<feColorMatrix in="SourceAlpha" type="matrix" values="0 0 0 0 0 0 0 0 0 0 0 0 0 0 0 0 0 0 127 0" result="hardAlpha"/>
<feOffset dy="4"/>
<feGaussianBlur stdDeviation="2"/>
<feComposite in2="hardAlpha" operator="out"/>
<feColorMatrix type="matrix" values="0 0 0 0 0 0 0 0 0 0 0 0 0 0 0 0 0 0 0.25 0"/>
<feBlend mode="normal" in2="BackgroundImageFix" result="effect1_dropShadow_2_5"/>
<feBlend mode="normal" in="SourceGraphic" in2="effect1_dropShadow_2_5" result="shape"/>
</filter>
<clipPath id="clip0_2_5">
<rect width="253" height="371.2" fill="white" transform="translate(4 0.23999)"/>
</clipPath>
</defs>
</svg>
