<svg width="32" height="27" viewBox="0 0 32 27" fill="none" xmlns="http://www.w3.org/2000/svg">
<path d="M31.3937 8.7175C31.6375 8.50437 32 8.70375 32 9.04062V23.1C32 24.9219 30.6562 26.4 29 26.4H3C1.34375 26.4 0 24.9219 0 23.1V9.0475C0 8.70375 0.35625 8.51125 0.60625 8.72437C2.00625 9.92062 3.8625 11.44 10.2375 16.5344C11.5562 17.5931 13.7812 19.8206 16 19.8069C18.2312 19.8275 20.5 17.5519 21.7687 16.5344C28.1437 11.44 29.9937 9.91375 31.3937 8.7175ZM16 17.6C17.45 17.6275 19.5375 15.5925 20.5875 14.7537C28.8812 8.13313 29.5125 7.55562 31.425 5.90562C31.7875 5.59625 32 5.115 32 4.60625V3.3C32 1.47812 30.6562 0 29 0H3C1.34375 0 0 1.47812 0 3.3V4.60625C0 5.115 0.2125 5.58937 0.575 5.90562C2.4875 7.54875 3.11875 8.13313 11.4125 14.7537C12.4625 15.5925 14.55 17.6275 16 17.6Z" fill="#F9F9F9"/>
</svg>
