<svg width="184" height="40" viewBox="0 0 184 40" fill="none" xmlns="http://www.w3.org/2000/svg">
<path d="M92 0.449097C41.1774 0.449097 0 9.19137 0 19.9814C0 30.7714 41.1774 39.5137 92 39.5137C142.823 39.5137 184 30.7714 184 19.9814C184 9.19137 142.823 0.449097 92 0.449097ZM92 8.00999C110.029 8.00999 124.645 11.1131 124.645 14.9408C124.645 18.7685 110.029 21.8716 92 21.8716C73.971 21.8716 59.3548 18.7685 59.3548 14.9408C59.3548 11.1131 73.971 8.00999 92 8.00999ZM92 35.1032C70.2242 35.1032 50.7113 33.0082 37.6532 29.7318C44.6274 26.9437 58.279 25.022 74.1936 25.022C75.0839 25.022 75.9742 25.0535 76.8274 25.1086C81.65 25.4394 86.6952 25.6521 92 25.6521C97.3048 25.6521 102.387 25.4394 107.173 25.1086C108.026 25.0535 108.916 25.022 109.806 25.022C125.721 25.022 139.373 26.9437 146.347 29.7318C133.289 33.0082 113.776 35.1032 92 35.1032Z" fill="black"/>
</svg>
