<svg width="45" height="45" viewBox="0 0 45 45" fill="none" xmlns="http://www.w3.org/2000/svg">
<path d="M45 11.25V40.1786C45 42.8404 43.1104 45 40.7812 45H4.21875C1.88965 45 0 42.8404 0 40.1786V11.25C0 8.58817 1.88965 6.42857 4.21875 6.42857H11.9531L13.0342 3.12388C13.6494 1.24554 15.2227 0 16.9805 0H28.0107C29.7686 0 31.3418 1.24554 31.957 3.12388L33.0469 6.42857H40.7812C43.1104 6.42857 45 8.58817 45 11.25ZM33.0469 25.7143C33.0469 19.0647 28.3184 13.6607 22.5 13.6607C16.6816 13.6607 11.9531 19.0647 11.9531 25.7143C11.9531 32.3638 16.6816 37.7679 22.5 37.7679C28.3184 37.7679 33.0469 32.3638 33.0469 25.7143ZM30.2344 25.7143C30.2344 30.5859 26.7627 34.5536 22.5 34.5536C18.2373 34.5536 14.7656 30.5859 14.7656 25.7143C14.7656 20.8426 18.2373 16.875 22.5 16.875C26.7627 16.875 30.2344 20.8426 30.2344 25.7143Z" fill="black"/>
</svg>
