<svg width="184" height="55" viewBox="0 0 184 55" fill="none" xmlns="http://www.w3.org/2000/svg">
<path d="M92 0.737183C41.1774 0.737183 0 12.7538 0 27.5851C0 42.4165 41.1774 54.4331 92 54.4331C142.823 54.4331 184 42.4165 184 27.5851C184 12.7538 142.823 0.737183 92 0.737183ZM92 11.1299C110.029 11.1299 124.645 15.3953 124.645 20.6566C124.645 25.918 110.029 30.1833 92 30.1833C73.971 30.1833 59.3548 25.918 59.3548 20.6566C59.3548 15.3953 73.971 11.1299 92 11.1299ZM92 48.3707C70.2242 48.3707 50.7113 45.491 37.6532 40.9875C44.6274 37.1551 58.279 34.5136 74.1936 34.5136C75.0839 34.5136 75.9742 34.5569 76.8274 34.6327C81.65 35.0874 86.6952 35.3797 92 35.3797C97.3048 35.3797 102.387 35.0874 107.173 34.6327C108.026 34.5569 108.916 34.5136 109.806 34.5136C125.721 34.5136 139.373 37.1551 146.347 40.9875C133.289 45.491 113.776 48.3707 92 48.3707Z" fill="black"/>
</svg>
