<svg width="49" height="50" viewBox="0 0 49 50" fill="none" xmlns="http://www.w3.org/2000/svg">
<path d="M24.5 34.375C31.8806 34.375 37.8636 30.1777 37.8636 25V9.375C37.8636 4.19727 31.8806 0 24.5 0C17.1194 0 11.1364 4.19727 11.1364 9.375V25C11.1364 30.1777 17.1194 34.375 24.5 34.375ZM46.7727 18.75H44.5455C43.3149 18.75 42.3182 19.4492 42.3182 20.3125V25C42.3182 32.3047 33.3409 38.166 22.7196 37.4395C13.4625 36.8057 6.68182 30.9678 6.68182 24.4434V20.3125C6.68182 19.4492 5.68511 18.75 4.45455 18.75H2.22727C0.996705 18.75 0 19.4492 0 20.3125V24.2344C0 32.9883 8.90492 40.792 21.1591 41.9775V45.3125H13.3636C12.1331 45.3125 11.1364 46.0117 11.1364 46.875V48.4375C11.1364 49.3008 12.1331 50 13.3636 50H35.6364C36.8669 50 37.8636 49.3008 37.8636 48.4375V46.875C37.8636 46.0117 36.8669 45.3125 35.6364 45.3125H27.8409V42.0146C39.7721 40.8662 49 33.6816 49 25V20.3125C49 19.4492 48.0033 18.75 46.7727 18.75Z" fill="white"/>
</svg>
