<svg width="176" height="50" viewBox="0 0 176 50" fill="none" xmlns="http://www.w3.org/2000/svg">
<path d="M85.6666 13.0879L29.3357 29.6177V47.458C29.3357 47.9199 29.8507 48.3629 30.7675 48.6896C31.6842 49.0162 32.9277 49.1997 34.2242 49.1997L68.4621 49.1681C69.7544 49.1658 70.9915 48.9813 71.903 48.6549C72.8145 48.3286 73.3262 47.8869 73.3261 47.4264V37.0079C73.3261 36.5459 73.8412 36.1029 74.758 35.7763C75.6747 35.4497 76.9181 35.2662 78.2147 35.2662H97.7687C99.0652 35.2662 100.309 35.4497 101.225 35.7763C102.142 36.1029 102.657 36.5459 102.657 37.0079V47.4188C102.655 47.648 102.78 47.8751 103.025 48.087C103.27 48.299 103.629 48.4916 104.084 48.6539C104.538 48.8162 105.077 48.945 105.671 49.0329C106.266 49.1207 106.902 49.166 107.546 49.166L141.771 49.1997C143.068 49.1997 144.311 49.0162 145.228 48.6896C146.145 48.3629 146.66 47.9199 146.66 47.458V29.6057L90.3412 13.0879C89.6791 12.8978 88.8543 12.7941 88.0039 12.7941C87.1535 12.7941 86.3287 12.8978 85.6666 13.0879ZM174.647 24.3229L149.104 16.8217V1.74407C149.104 1.39763 148.718 1.06538 148.03 0.820403C147.343 0.57543 146.41 0.437805 145.438 0.437805H128.328C127.356 0.437805 126.423 0.57543 125.735 0.820403C125.048 1.06538 124.662 1.39763 124.662 1.74407V9.64808L97.3074 1.62977C94.6823 0.860143 91.3883 0.439344 87.9886 0.439344C84.589 0.439344 81.295 0.860143 78.6699 1.62977L1.33059 24.3229C0.959328 24.4322 0.65217 24.5666 0.426663 24.7182C0.201156 24.8698 0.0617198 25.0358 0.016322 25.2067C-0.0290758 25.3775 0.0204543 25.5499 0.162082 25.7139C0.30371 25.8779 0.534661 26.0304 0.841737 26.1626L8.6328 29.5371C8.93904 29.6698 9.31572 29.7796 9.74127 29.8604C10.1668 29.9411 10.6329 29.9911 11.1128 30.0076C11.5927 30.0241 12.077 30.0067 12.538 29.9564C12.999 29.9061 13.4276 29.8239 13.7993 29.7145L85.6666 8.62484C86.3287 8.4347 87.1535 8.33101 88.0039 8.33101C88.8543 8.33101 89.6791 8.4347 90.3412 8.62484L162.212 29.7145C162.583 29.8239 163.011 29.9062 163.471 29.9567C163.931 30.0071 164.415 30.0248 164.895 30.0086C165.374 29.9924 165.84 29.9428 166.266 29.8624C166.691 29.7821 167.068 29.6726 167.375 29.5404L175.166 26.1658C175.473 26.0329 175.703 25.8796 175.843 25.7149C175.983 25.5501 176.03 25.3772 175.982 25.2059C175.933 25.0347 175.791 24.8685 175.561 24.7169C175.332 24.5654 175.021 24.4315 174.647 24.3229Z" fill="black"/>
</svg>
