<svg width="176" height="50" viewBox="0 0 176 50" fill="none" xmlns="http://www.w3.org/2000/svg">
<path d="M85.6666 13.0879L29.3357 29.6176V47.458C29.3357 47.9199 29.8507 48.3629 30.7675 48.6895C31.6842 49.0161 32.9277 49.1996 34.2242 49.1996L68.4621 49.1681C69.7544 49.1658 70.9915 48.9813 71.903 48.6549C72.8145 48.3285 73.3262 47.8868 73.3261 47.4264V37.0078C73.3261 36.5459 73.8412 36.1029 74.758 35.7762C75.6747 35.4496 76.9181 35.2661 78.2147 35.2661H97.7687C99.0652 35.2661 100.309 35.4496 101.225 35.7762C102.142 36.1029 102.657 36.5459 102.657 37.0078V47.4188C102.655 47.6479 102.78 47.875 103.025 48.087C103.27 48.2989 103.629 48.4915 104.084 48.6539C104.538 48.8162 105.077 48.9449 105.671 49.0328C106.266 49.1207 106.902 49.1659 107.546 49.1659L141.771 49.1996C143.068 49.1996 144.311 49.0161 145.228 48.6895C146.145 48.3629 146.66 47.9199 146.66 47.458V29.6056L90.3412 13.0879C89.6791 12.8977 88.8543 12.794 88.0039 12.794C87.1535 12.794 86.3287 12.8977 85.6666 13.0879ZM174.647 24.3229L149.104 16.8216V1.74401C149.104 1.39757 148.718 1.06531 148.03 0.820341C147.343 0.575369 146.41 0.437744 145.438 0.437744H128.328C127.356 0.437744 126.423 0.575369 125.735 0.820341C125.048 1.06531 124.662 1.39757 124.662 1.74401V9.64802L97.3074 1.62971C94.6823 0.860081 91.3883 0.439283 87.9886 0.439283C84.589 0.439283 81.295 0.860081 78.6699 1.62971L1.33059 24.3229C0.959328 24.4322 0.65217 24.5665 0.426663 24.7181C0.201156 24.8698 0.0617198 25.0358 0.016322 25.2066C-0.0290758 25.3774 0.0204543 25.5498 0.162082 25.7138C0.30371 25.8778 0.534661 26.0303 0.841737 26.1625L8.6328 29.537C8.93904 29.6697 9.31572 29.7796 9.74127 29.8603C10.1668 29.941 10.6329 29.9911 11.1128 30.0076C11.5927 30.024 12.077 30.0066 12.538 29.9564C12.999 29.9061 13.4276 29.8239 13.7993 29.7145L85.6666 8.62478C86.3287 8.43464 87.1535 8.33095 88.0039 8.33095C88.8543 8.33095 89.6791 8.43464 90.3412 8.62478L162.212 29.7145C162.583 29.8239 163.011 29.9062 163.471 29.9566C163.931 30.0071 164.415 30.0247 164.895 30.0086C165.374 29.9924 165.84 29.9427 166.266 29.8624C166.691 29.782 167.068 29.6726 167.375 29.5403L175.166 26.1658C175.473 26.0328 175.703 25.8796 175.843 25.7148C175.983 25.5501 176.03 25.3771 175.982 25.2059C175.933 25.0346 175.791 24.8684 175.561 24.7169C175.332 24.5654 175.021 24.4314 174.647 24.3229Z" fill="black"/>
</svg>
