<svg width="200" height="47" viewBox="0 0 200 47" fill="none" xmlns="http://www.w3.org/2000/svg">
<path d="M183.375 27.6245L199.789 8.85756C200.974 7.50256 197.011 6.21224 191.663 6.21224H55.2806L52.0979 2.16923C51.3049 1.1615 47.8924 0.437805 43.9337 0.437805H8.33333C3.7309 0.437805 0 1.40728 0 2.60322V4.04683C0 5.24277 3.7309 6.21224 8.33333 6.21224H32.5983L56.9899 37.1989C51.1545 38.0709 47.2222 39.706 47.2222 41.5807C47.2222 44.3712 55.9278 46.6333 66.6667 46.6333C77.4056 46.6333 86.1111 44.3712 86.1111 41.5807C86.1111 40.1665 83.8726 38.8888 80.2695 37.9716H153.064C149.461 38.8888 147.222 40.1665 147.222 41.5807C147.222 44.3712 155.928 46.6333 166.667 46.6333C177.406 46.6333 186.111 44.3712 186.111 41.5807C186.111 39.5802 181.636 37.8515 175.146 37.0328L177.062 34.8425C178.247 33.4875 174.283 32.1972 168.936 32.1972H75.7351L73.4625 29.31H175.249C179.14 29.31 182.513 28.6104 183.375 27.6245Z" fill="black"/>
</svg>
