<svg width="168" height="35" viewBox="0 0 168 35" fill="none" xmlns="http://www.w3.org/2000/svg">
<path d="M6 7.06795H162C165.314 7.06795 168 6.44825 168 5.68373V2.2232C168 1.45868 165.314 0.838989 162 0.838989H6C2.68613 0.838989 0 1.45868 0 2.2232V5.68373C0 6.44825 2.68613 7.06795 6 7.06795ZM6 20.9101H162C165.314 20.9101 168 20.2904 168 19.5259V16.0653C168 15.3008 165.314 14.6811 162 14.6811H6C2.68613 14.6811 0 15.3008 0 16.0653V19.5259C0 20.2904 2.68613 20.9101 6 20.9101ZM6 34.7522H162C165.314 34.7522 168 34.1325 168 33.368V29.9075C168 29.1429 165.314 28.5232 162 28.5232H6C2.68613 28.5232 0 29.1429 0 29.9075V33.368C0 34.1325 2.68613 34.7522 6 34.7522Z" fill="black"/>
</svg>
