<svg width="176" height="54" viewBox="0 0 176 54" fill="none" xmlns="http://www.w3.org/2000/svg">
<path d="M85.6666 14.0137L29.3357 32.2161V51.8616C29.3357 52.3703 29.8507 52.8581 30.7675 53.2178C31.6842 53.5775 32.9276 53.7795 34.2242 53.7795L68.4621 53.7448C69.7544 53.7422 70.9915 53.539 71.903 53.1796C72.8145 52.8202 73.3262 52.3338 73.3261 51.8268V40.3541C73.3261 39.8454 73.8412 39.3576 74.758 38.9979C75.6747 38.6382 76.9181 38.4361 78.2147 38.4361H97.7687C99.0652 38.4361 100.309 38.6382 101.225 38.9979C102.142 39.3576 102.657 39.8454 102.657 40.3541V51.8184C102.655 52.0708 102.78 52.3209 103.025 52.5542C103.27 52.7876 103.629 52.9998 104.084 53.1785C104.538 53.3572 105.077 53.499 105.671 53.5958C106.266 53.6926 106.902 53.7424 107.546 53.7424L141.771 53.7795C143.068 53.7795 144.311 53.5775 145.228 53.2178C146.145 52.8581 146.66 52.3703 146.66 51.8616V32.2029L90.3412 14.0137C89.6791 13.8044 88.8543 13.6902 88.0039 13.6902C87.1535 13.6902 86.3287 13.8044 85.6666 14.0137ZM174.647 26.3856L149.104 18.1253V1.52206C149.104 1.14056 148.718 0.774689 148.03 0.504929C147.343 0.235168 146.41 0.0836182 145.438 0.0836182H128.328C127.356 0.0836182 126.423 0.235168 125.735 0.504929C125.048 0.774689 124.662 1.14056 124.662 1.52206V10.2258L97.3074 1.3962C94.6823 0.54869 91.3883 0.0853123 87.9886 0.0853123C84.589 0.0853123 81.295 0.54869 78.6699 1.3962L1.33059 26.3856C0.959328 26.506 0.65217 26.6539 0.426663 26.8208C0.201156 26.9878 0.0617198 27.1706 0.016322 27.3587C-0.0290758 27.5469 0.0204543 27.7367 0.162082 27.9173C0.30371 28.0979 0.534661 28.2658 0.841737 28.4114L8.6328 32.1274C8.93904 32.2734 9.31572 32.3944 9.74127 32.4833C10.1668 32.5722 10.6329 32.6273 11.1128 32.6455C11.5927 32.6636 12.077 32.6445 12.538 32.5891C12.999 32.5337 13.4276 32.4432 13.7993 32.3227L85.6666 9.09907C86.3287 8.88968 87.1535 8.7755 88.0039 8.7755C88.8543 8.7755 89.6791 8.88968 90.3412 9.09907L162.212 32.3227C162.583 32.4432 163.011 32.5338 163.471 32.5894C163.931 32.645 164.415 32.6644 164.895 32.6466C165.374 32.6288 165.84 32.5741 166.266 32.4856C166.691 32.3971 167.068 32.2766 167.375 32.1309L175.166 28.415C175.473 28.2685 175.703 28.0998 175.843 27.9184C175.983 27.737 176.03 27.5465 175.982 27.3579C175.933 27.1693 175.791 26.9863 175.562 26.8195C175.332 26.6526 175.022 26.5051 174.647 26.3856Z" fill="black"/>
</svg>
