<svg width="200" height="51" viewBox="0 0 200 51" fill="none" xmlns="http://www.w3.org/2000/svg">
<path d="M183.375 30.0212L199.789 9.35534C200.974 7.86322 197.011 6.44234 191.663 6.44234H55.2806L52.0979 1.99024C51.3049 0.880545 47.8924 0.0836182 43.9337 0.0836182H8.33333C3.7309 0.0836182 0 1.15119 0 2.46814V4.05782C0 5.37477 3.7309 6.44234 8.33333 6.44234H32.5983L56.9899 40.5644C51.1545 41.5246 47.2222 43.3251 47.2222 45.3895C47.2222 48.4624 55.9278 50.9534 66.6667 50.9534C77.4056 50.9534 86.1111 48.4624 86.1111 45.3895C86.1111 43.8323 83.8726 42.4253 80.2695 41.4153H153.064C149.461 42.4253 147.222 43.8323 147.222 45.3895C147.222 48.4624 155.928 50.9534 166.667 50.9534C177.406 50.9534 186.111 48.4624 186.111 45.3895C186.111 43.1866 181.636 41.283 175.146 40.3815L177.062 37.9696C178.247 36.4775 174.283 35.0566 168.936 35.0566H75.7351L73.4625 31.8773H175.249C179.14 31.8773 182.513 31.1069 183.375 30.0212Z" fill="black"/>
</svg>
