<svg width="176" height="40" viewBox="0 0 176 40" fill="none" xmlns="http://www.w3.org/2000/svg">
<path d="M85.6666 10.5021L29.3357 23.7445V38.037C29.3357 38.407 29.8507 38.7619 30.7675 39.0236C31.6842 39.2853 32.9277 39.4323 34.2242 39.4323L68.4621 39.407C69.7544 39.4051 70.9915 39.2573 71.903 38.9958C72.8145 38.7344 73.3262 38.3805 73.3261 38.0117V29.665C73.3261 29.295 73.8412 28.9401 74.758 28.6784C75.6747 28.4167 76.9181 28.2697 78.2147 28.2697H97.7687C99.0652 28.2697 100.309 28.4167 101.225 28.6784C102.142 28.9401 102.657 29.295 102.657 29.665V38.0056C102.655 38.1892 102.78 38.3711 103.025 38.5409C103.27 38.7107 103.629 38.865 104.084 38.995C104.538 39.125 105.077 39.2282 105.671 39.2986C106.266 39.369 106.902 39.4052 107.546 39.4052L141.771 39.4323C143.068 39.4323 144.311 39.2853 145.228 39.0236C146.145 38.7619 146.66 38.407 146.66 38.037V23.7349L90.3412 10.5021C89.6791 10.3497 88.8543 10.2667 88.0039 10.2667C87.1535 10.2667 86.3287 10.3497 85.6666 10.5021ZM174.647 19.5027L149.104 13.4933V1.41417C149.104 1.13662 148.718 0.870441 148.03 0.674186C147.343 0.477931 146.41 0.367676 145.438 0.367676H128.328C127.356 0.367676 126.423 0.477931 125.735 0.674186C125.048 0.870441 124.662 1.13662 124.662 1.41417V7.7463L97.3074 1.3226C94.6823 0.706023 91.3883 0.368908 87.9886 0.368908C84.589 0.368908 81.295 0.706023 78.6699 1.3226L1.33059 19.5027C0.959328 19.5903 0.65217 19.6979 0.426663 19.8194C0.201156 19.9409 0.0617198 20.0739 0.016322 20.2107C-0.0290758 20.3476 0.0204543 20.4857 0.162082 20.6171C0.30371 20.7485 0.534661 20.8706 0.841737 20.9765L8.6328 23.68C8.93904 23.7863 9.31572 23.8743 9.74127 23.939C10.1668 24.0036 10.6329 24.0437 11.1128 24.0569C11.5927 24.0701 12.077 24.0562 12.538 24.0159C12.999 23.9756 13.4276 23.9098 13.7993 23.8221L85.6666 6.92655C86.3287 6.77422 87.1535 6.69115 88.0039 6.69115C88.8543 6.69115 89.6791 6.77422 90.3412 6.92655L162.212 23.8221C162.583 23.9098 163.011 23.9757 163.471 24.0161C163.931 24.0565 164.415 24.0707 164.895 24.0577C165.374 24.0448 165.84 24.005 166.266 23.9406C166.691 23.8762 167.068 23.7886 167.375 23.6826L175.166 20.9792C175.473 20.8726 175.703 20.7499 175.843 20.6179C175.983 20.4859 176.03 20.3473 175.982 20.2101C175.933 20.0729 175.791 19.9398 175.561 19.8184C175.332 19.697 175.021 19.5897 174.647 19.5027Z" fill="black"/>
</svg>
