<svg width="168" height="26" viewBox="0 0 168 26" fill="none" xmlns="http://www.w3.org/2000/svg">
<path d="M6 5.33H162C165.314 5.33 168 4.87916 168 4.32296V1.80538C168 1.24918 165.314 0.79834 162 0.79834H6C2.68613 0.79834 0 1.24918 0 1.80538V4.32296C0 4.87916 2.68613 5.33 6 5.33ZM6 15.4004H162C165.314 15.4004 168 14.9495 168 14.3933V11.8757C168 11.3195 165.314 10.8687 162 10.8687H6C2.68613 10.8687 0 11.3195 0 11.8757V14.3933C0 14.9495 2.68613 15.4004 6 15.4004ZM6 25.4707H162C165.314 25.4707 168 25.0199 168 24.4637V21.9461C168 21.3899 165.314 20.9391 162 20.9391H6C2.68613 20.9391 0 21.3899 0 21.9461V24.4637C0 25.0199 2.68613 25.4707 6 25.4707Z" fill="black"/>
</svg>
