<svg width="176" height="54" viewBox="0 0 176 54" fill="none" xmlns="http://www.w3.org/2000/svg">
<path d="M85.6666 13.93L29.3357 32.1323V51.7779C29.3357 52.2865 29.8507 52.7744 30.7675 53.134C31.6842 53.4937 32.9277 53.6958 34.2242 53.6958L68.4621 53.661C69.7544 53.6585 70.9915 53.4553 71.903 53.0959C72.8145 52.7365 73.3262 52.2501 73.3261 51.7431V40.2703C73.3261 39.7616 73.8412 39.2738 74.758 38.9141C75.6747 38.5545 76.9181 38.3524 78.2147 38.3524H97.7687C99.0652 38.3524 100.309 38.5545 101.225 38.9141C102.142 39.2738 102.657 39.7616 102.657 40.2703V51.7347C102.655 51.9871 102.78 52.2371 103.025 52.4705C103.27 52.7039 103.629 52.916 104.084 53.0948C104.538 53.2735 105.077 53.4153 105.671 53.5121C106.266 53.6088 106.902 53.6586 107.546 53.6586L141.771 53.6958C143.068 53.6958 144.311 53.4937 145.228 53.134C146.145 52.7744 146.66 52.2865 146.66 51.7779V32.1191L90.3412 13.93C89.6791 13.7206 88.8543 13.6064 88.0039 13.6064C87.1535 13.6064 86.3287 13.7206 85.6666 13.93ZM174.647 26.3018L149.104 18.0416V1.43832C149.104 1.05682 148.718 0.690949 148.03 0.421189C147.343 0.151428 146.41 -0.00012207 145.438 -0.00012207H128.328C127.356 -0.00012207 126.423 0.151428 125.735 0.421189C125.048 0.690949 124.662 1.05682 124.662 1.43832V10.1421L97.3074 1.31246C94.6823 0.46495 91.3883 0.00157211 87.9886 0.00157211C84.589 0.00157211 81.295 0.46495 78.6699 1.31246L1.33059 26.3018C0.959328 26.4222 0.65217 26.5701 0.426663 26.7371C0.201156 26.9041 0.0617198 27.0869 0.016322 27.275C-0.0290758 27.4631 0.0204543 27.6529 0.162082 27.8335C0.30371 28.0141 0.534661 28.182 0.841737 28.3276L8.6328 32.0436C8.93904 32.1897 9.31572 32.3107 9.74127 32.3996C10.1668 32.4885 10.6329 32.5436 11.1128 32.5617C11.5927 32.5799 12.077 32.5607 12.538 32.5053C12.999 32.45 13.4276 32.3595 13.7993 32.239L85.6666 9.01532C86.3287 8.80594 87.1535 8.69176 88.0039 8.69176C88.8543 8.69176 89.6791 8.80594 90.3412 9.01532L162.212 32.239C162.583 32.3595 163.011 32.4501 163.471 32.5056C163.931 32.5612 164.415 32.5807 164.895 32.5628C165.374 32.545 165.84 32.4903 166.266 32.4018C166.691 32.3134 167.068 32.1929 167.375 32.0472L175.166 28.3312C175.473 28.1848 175.703 28.016 175.843 27.8346C175.983 27.6532 176.03 27.4627 175.982 27.2742C175.933 27.0856 175.791 26.9026 175.561 26.7357C175.332 26.5689 175.021 26.4214 174.647 26.3018Z" fill="black"/>
</svg>
