<svg width="200" height="47" viewBox="0 0 200 47" fill="none" xmlns="http://www.w3.org/2000/svg">
<path d="M183.375 27.6244L199.789 8.8575C200.974 7.5025 197.011 6.21218 191.663 6.21218H55.2806L52.0979 2.16917C51.3049 1.16144 47.8924 0.437744 43.9337 0.437744H8.33333C3.7309 0.437744 0 1.40722 0 2.60316V4.04677C0 5.24271 3.7309 6.21218 8.33333 6.21218H32.5983L56.9899 37.1988C51.1545 38.0708 47.2222 39.7059 47.2222 41.5806C47.2222 44.3711 55.9278 46.6332 66.6667 46.6332C77.4056 46.6332 86.1111 44.3711 86.1111 41.5806C86.1111 40.1664 83.8726 38.8887 80.2695 37.9716H153.064C149.461 38.8887 147.222 40.1664 147.222 41.5806C147.222 44.3711 155.928 46.6332 166.667 46.6332C177.406 46.6332 186.111 44.3711 186.111 41.5806C186.111 39.5801 181.636 37.8514 175.146 37.0328L177.062 34.8425C178.247 33.4875 174.283 32.1971 168.936 32.1971H75.7351L73.4625 29.3099H175.249C179.14 29.3099 182.513 28.6103 183.375 27.6244Z" fill="black"/>
</svg>
