<svg width="168" height="35" viewBox="0 0 168 35" fill="none" xmlns="http://www.w3.org/2000/svg">
<path d="M6 7.15169H162C165.314 7.15169 168 6.53199 168 5.76747V2.30694C168 1.54242 165.314 0.922729 162 0.922729H6C2.68613 0.922729 0 1.54242 0 2.30694V5.76747C0 6.53199 2.68613 7.15169 6 7.15169ZM6 20.9938H162C165.314 20.9938 168 20.3741 168 19.6096V16.1491C168 15.3846 165.314 14.7649 162 14.7649H6C2.68613 14.7649 0 15.3846 0 16.1491V19.6096C0 20.3741 2.68613 20.9938 6 20.9938ZM6 34.8359H162C165.314 34.8359 168 34.2162 168 33.4517V29.9912C168 29.2267 165.314 28.607 162 28.607H6C2.68613 28.607 0 29.2267 0 29.9912V33.4517C0 34.2162 2.68613 34.8359 6 34.8359Z" fill="black"/>
</svg>
