<svg width="70" height="50" viewBox="0 0 70 50" fill="none" xmlns="http://www.w3.org/2000/svg">
<path d="M35 0C15.6653 0 0 11.1895 0 25C0 38.8105 15.6653 50 35 50C54.3347 50 70 38.8105 70 25C70 11.1895 54.3347 0 35 0ZM46.2903 16.9355C48.7883 16.9355 50.8065 18.377 50.8065 20.1613C50.8065 21.9456 48.7883 23.3871 46.2903 23.3871C43.7923 23.3871 41.7742 21.9456 41.7742 20.1613C41.7742 18.377 43.7923 16.9355 46.2903 16.9355ZM23.7097 16.9355C26.2077 16.9355 28.2258 18.377 28.2258 20.1613C28.2258 21.9456 26.2077 23.3871 23.7097 23.3871C21.2117 23.3871 19.1935 21.9456 19.1935 20.1613C19.1935 18.377 21.2117 16.9355 23.7097 16.9355ZM51.2016 34.0927C47.1794 37.5403 41.2802 39.5161 35 39.5161C28.7198 39.5161 22.8206 37.5403 18.7984 34.0927C16.879 32.4496 20.3508 30.3931 22.2702 32.0262C25.4315 34.7379 30.0605 36.2802 35 36.2802C39.9395 36.2802 44.5686 34.7278 47.7298 32.0262C49.621 30.3931 53.1069 32.4496 51.2016 34.0927Z" fill="black"/>
</svg>
