<svg width="200" height="38" viewBox="0 0 200 38" fill="none" xmlns="http://www.w3.org/2000/svg">
<path d="M183.375 22.1477L199.789 7.11299C200.974 6.02746 197.011 4.99375 191.663 4.99375H55.2806L52.0979 1.75477C51.3049 0.947453 47.8924 0.367676 43.9337 0.367676H8.33333C3.7309 0.367676 0 1.14435 0 2.10245V3.25897C0 4.21707 3.7309 4.99375 8.33333 4.99375H32.5983L56.9899 29.818C51.1545 30.5166 47.2222 31.8265 47.2222 33.3284C47.2222 35.564 55.9278 37.3762 66.6667 37.3762C77.4056 37.3762 86.1111 35.564 86.1111 33.3284C86.1111 32.1955 83.8726 31.1719 80.2695 30.4371H153.064C149.461 31.1719 147.222 32.1955 147.222 33.3284C147.222 35.564 155.928 37.3762 166.667 37.3762C177.406 37.3762 186.111 35.564 186.111 33.3284C186.111 31.7258 181.636 30.3409 175.146 29.685L177.062 27.9303C178.247 26.8448 174.283 25.8111 168.936 25.8111H75.7351L73.4625 23.498H175.249C179.14 23.498 182.513 22.9376 183.375 22.1477Z" fill="black"/>
</svg>
