<svg width="184" height="55" viewBox="0 0 184 55" fill="none" xmlns="http://www.w3.org/2000/svg">
<path d="M92 0.820923C41.1774 0.820923 0 12.8375 0 27.6689C0 42.5002 41.1774 54.5168 92 54.5168C142.823 54.5168 184 42.5002 184 27.6689C184 12.8375 142.823 0.820923 92 0.820923ZM92 11.2137C110.029 11.2137 124.645 15.479 124.645 20.7404C124.645 26.0017 110.029 30.2671 92 30.2671C73.971 30.2671 59.3548 26.0017 59.3548 20.7404C59.3548 15.479 73.971 11.2137 92 11.2137ZM92 48.4544C70.2242 48.4544 50.7113 45.5747 37.6532 41.0712C44.6274 37.2389 58.279 34.5974 74.1935 34.5974C75.0839 34.5974 75.9742 34.6407 76.8274 34.7165C81.65 35.1712 86.6952 35.4634 92 35.4634C97.3048 35.4634 102.387 35.1712 107.173 34.7165C108.026 34.6407 108.916 34.5974 109.806 34.5974C125.721 34.5974 139.373 37.2389 146.347 41.0712C133.289 45.5747 113.776 48.4544 92 48.4544Z" fill="black"/>
</svg>
