<svg width="200" height="51" viewBox="0 0 200 51" fill="none" xmlns="http://www.w3.org/2000/svg">
<path d="M183.375 29.9375L199.789 9.2716C200.974 7.77948 197.011 6.3586 191.663 6.3586H55.2806L52.0979 1.9065C51.3049 0.796805 47.8924 -0.00012207 43.9337 -0.00012207H8.33333C3.7309 -0.00012207 0 1.06745 0 2.3844V3.97408C0 5.29103 3.7309 6.3586 8.33333 6.3586H32.5983L56.9899 40.4806C51.1545 41.4409 47.2222 43.2414 47.2222 45.3058C47.2222 48.3787 55.9278 50.8697 66.6667 50.8697C77.4056 50.8697 86.1111 48.3787 86.1111 45.3058C86.1111 43.7485 83.8726 42.3415 80.2695 41.3316H153.064C149.461 42.3415 147.222 43.7485 147.222 45.3058C147.222 48.3787 155.928 50.8697 166.667 50.8697C177.406 50.8697 186.111 48.3787 186.111 45.3058C186.111 43.1029 181.636 41.1993 175.146 40.2978L177.062 37.8859C178.247 36.3937 174.283 34.9729 168.936 34.9729H75.7351L73.4625 31.7935H175.249C179.14 31.7935 182.513 31.0231 183.375 29.9375Z" fill="black"/>
</svg>
