<svg width="184" height="50" viewBox="0 0 184 50" fill="none" xmlns="http://www.w3.org/2000/svg">
<path d="M92 0.291138C41.1774 0.291138 0 11.2036 0 24.6721C0 38.1406 41.1774 49.053 92 49.053C142.823 49.053 184 38.1406 184 24.6721C184 11.2036 142.823 0.291138 92 0.291138ZM92 9.72892C110.029 9.72892 124.645 13.6024 124.645 18.3802C124.645 23.1581 110.029 27.0315 92 27.0315C73.971 27.0315 59.3548 23.1581 59.3548 18.3802C59.3548 13.6024 73.971 9.72892 92 9.72892ZM92 43.5477C70.2242 43.5477 50.7113 40.9326 37.6532 36.8429C44.6274 33.3627 58.279 30.9639 74.1936 30.9639C75.0839 30.9639 75.9742 31.0033 76.8274 31.0721C81.65 31.485 86.6952 31.7504 92 31.7504C97.3048 31.7504 102.387 31.485 107.173 31.0721C108.026 31.0033 108.916 30.9639 109.806 30.9639C125.721 30.9639 139.373 33.3627 146.347 36.8429C133.289 40.9326 113.776 43.5477 92 43.5477Z" fill="black"/>
</svg>
