<svg width="168" height="32" viewBox="0 0 168 32" fill="none" xmlns="http://www.w3.org/2000/svg">
<path d="M6 6.12131H162C165.314 6.12131 168 5.55856 168 4.86429V1.72174C168 1.02747 165.314 0.464722 162 0.464722H6C2.68613 0.464722 0 1.02747 0 1.72174V4.86429C0 5.55856 2.68613 6.12131 6 6.12131ZM6 18.6915H162C165.314 18.6915 168 18.1288 168 17.4345V14.2919C168 13.5977 165.314 13.0349 162 13.0349H6C2.68613 13.0349 0 13.5977 0 14.2919V17.4345C0 18.1288 2.68613 18.6915 6 18.6915ZM6 31.2617H162C165.314 31.2617 168 30.699 168 30.0047V26.8621C168 26.1679 165.314 25.6051 162 25.6051H6C2.68613 25.6051 0 26.1679 0 26.8621V30.0047C0 30.699 2.68613 31.2617 6 31.2617Z" fill="black"/>
</svg>
