<svg width="18" height="18" viewBox="0 0 18 18" fill="none" xmlns="http://www.w3.org/2000/svg">
<path d="M17.3465 0.86498L13.6902 0.0212298C13.2929 -0.0701765 12.8851 0.137245 12.7234 0.509902L11.0359 4.4474C10.8883 4.79193 10.9867 5.19623 11.2785 5.43178L13.409 7.17553C12.1433 9.87201 9.93201 12.115 7.17927 13.4052L5.43552 11.2747C5.19646 10.9829 4.79568 10.8845 4.45115 11.0322L0.513647 12.7197C0.137476 12.8849 -0.0699463 13.2927 0.0214599 13.69L0.86521 17.3462C0.953101 17.7259 1.2906 18.0001 1.68787 18.0001C10.6914 18.0001 18.0004 10.7052 18.0004 1.68764C18.0004 1.29389 17.7297 0.95287 17.3465 0.86498Z" fill="black"/>
</svg>
